. 
  
http://www.torrentday.com/        :     The Hottest Private Tracker On The Net!!!


               www . TorrentDay . Com 
(((((((((((((= Enjoy No RAR releases =))))))))))))))))))))


...................................NFO:....................................

.                                                                                                     
       
     
     
       
       
     
     
                                         
                                         
                EXVID                    
                                         
         
                                         
         Filled the Archives             
                                         
         
                                         
                With:                    
                                         
         
                                         
                                    
     E240                           
                                    
     SP               (C) 2009      
                                         
     
     
     
                                                                                  
                                                                                   
  Pocahontas.II.Journey.To.A.New.World.1998.STV.iNTERNAL.DVDRip.XviD-EXViDiNT       
                                                                                   
                                                                                  
     
                                                                                               
EXViD aims to iNTERNAL those releases which have been lost in the archives.
EXViD aims to PRE non-internal releases which have poor sources and are likely skipped by others. 
http://www.imdb.com/title/tt0143808/
Subtitles: EN HI
Date: 2010.11

Directors:
Tom Ellery, Bradley Raymond

Genres:
Animation | Adventure | Family

Plot:
Pocahontas sets of on a journey to England with Meeko, Flit, and Percy. Hearing rumors of John
Smith's death, Pocahontas tries to prevent war and battle. 

Cast
Credited cast:
Irene Bedard  ...  Pocahontas (voice)  
Jim Cummings  ...  King James (voice)  
Donal Gibson  ...  John Smith (voice)  
Finola Hughes  ...  Additional voices (voice)  
Linda Hunt  ...  Grandmother Willow (voice)  
Judy Kuhn  ...  Pocahontas (singing voice)  
Russell Means  ...  Powhatan (voice)  
Jean Stapleton  ...  Mrs. Jenkins (voice)  
David Ogden Stiers  ...  Ratcliffe (voice)  
Billy Zane  ...  John Rolfe (voice)  
Jeff Bennett  ...  Additional voices (voice)  
Bob Bergen  ...  Additional voices (voice) (as Robert Bergen)  
Mark S. Brien  ...  Additional voices (voice) (as Mark Steven Brien)  
Rodger Bumpass  ...  Additional voices (voice)  
Amick Byram  ...  Additional voices (voice)                  

Stats:
General
Format                           : AVI
Format/Info                      : Audio Video Interleave
File size                        : 700 MiB
Duration                         : 1h 10mn
Overall bit rate                 : 1 394 Kbps
Writing application              : VirtualDubMod 1.5.10.2 (build 2540/release)
Writing library                  : VirtualDubMod build 2540/release

Video
ID                               : 0
Format                           : MPEG-4 Visual
Format profile                   : Advanced Simple@L5
Format settings, BVOP            : Yes
Format settings, QPel            : No
Format settings, GMC             : No warppoints
Format settings, Matrix          : Default (H.263)
Muxing mode                      : Packed bitstream
Codec ID                         : XVID
Codec ID/Hint                    : XviD
Duration                         : 1h 10mn
Bit rate                         : 1 254 Kbps
Width                            : 608 pixels
Height                           : 448 pixels
Display aspect ratio             : 4:3
Frame rate                       : 25.000 fps
Color space                      : YUV
Chroma subsampling               : 4:2:0
Bit depth                        : 8 bits
Scan type                        : Progressive
Bits/(Pixel*Frame)               : 0.184
Stream size                      : 629 MiB (90%)
Writing library                  : XviD 1.2.1 (UTC 2008-12-04)

Audio
ID                               : 1
Format                           : MPEG Audio
Format version                   : Version 1
Format profile                   : Layer 3
Mode                             : Joint stereo
Mode extension                   : MS Stereo
Codec ID                         : 55
Codec ID/Hint                    : MP3
Duration                         : 1h 10mn
Bit rate mode                    : Variable
Bit rate                         : 128 Kbps
Channel(s)                       : 2 channels
Sampling rate                    : 48.0 KHz
Stream size                      : 64.1 MiB (9%)
Alignment                        : Aligned on interleaves
Interleave, duration             : 24 ms (0.60 video frame)
Interleave, preload duration     : 154 ms
Writing library                  : LAME3.90.
Encoding settings                : -m j -V 4 -q 2 -lowpass 17.6 --abr 128





Release notes:
Enjoy!

Looking for:
75TB+ Archives
DUTCH/FLEMiSH Archives
                                                                                                    
Greets: CRBS EPiSODE FiCO FLS iLS KLASSiGER LiPSYNC MADE NODLABS RUNNER TNAN       
   

                                                                    ASCII DONE BY XX^NFO 2oo9